<?xml version="1.0" encoding="UTF-8" standalone="no"?>
<!DOCTYPE svg PUBLIC "-//W3C//DTD SVG 1.1//EN" "http://www.w3.org/Graphics/SVG/1.1/DTD/svg11.dtd">
<!-- Created with Vectornator (http://vectornator.io/) -->
<svg height="100%" stroke-miterlimit="10" style="fill-rule:nonzero;clip-rule:evenodd;stroke-linecap:round;stroke-linejoin:round;" version="1.1" viewBox="0 0 129 128" width="100%" xml:space="preserve" xmlns="http://www.w3.org/2000/svg" xmlns:vectornator="http://vectornator.io" xmlns:xlink="http://www.w3.org/1999/xlink">
<defs>
<radialGradient cx="61.03" cy="118.2" gradientTransform="matrix(0.534317 0 0 0.0443094 39.8607 110.507)" gradientUnits="userSpaceOnUse" id="RadialGradient" r="50.25">
<stop offset="0" stop-color="#000000"/>
<stop offset="1" stop-color="#000000" stop-opacity="0"/>
</radialGradient>
<linearGradient gradientTransform="matrix(0.534317 0 0 0.534319 38.2734 53.2063)" gradientUnits="userSpaceOnUse" id="LinearGradient" x1="0" x2="0" y1="6.281" y2="114.9">
<stop offset="0" stop-color="#2c72c7"/>
<stop offset="1" stop-color="#00438a"/>
</linearGradient>
<linearGradient gradientTransform="matrix(0.534317 0 0 0.534319 38.2734 53.2063)" gradientUnits="userSpaceOnUse" id="LinearGradient_2" x1="0" x2="0" y1="12.354" y2="101.12">
<stop offset="0" stop-color="#bff500"/>
<stop offset="1" stop-color="#8bb300"/>
</linearGradient>
<radialGradient cx="109.07" cy="60.37" gradientTransform="matrix(-3.21028e-08 -0.255891 0.446078 0 46.4579 87.717)" gradientUnits="userSpaceOnUse" id="RadialGradient_2" r="51.09">
<stop offset="0" stop-color="#eeeeee" stop-opacity="0.872"/>
<stop offset="1" stop-color="#eeeeee" stop-opacity="0"/>
</radialGradient>
<radialGradient cx="87.49" cy="-9.828" gradientTransform="matrix(-0.363408 0.437871 -0.472643 -0.392271 99.2511 43.4191)" gradientUnits="userSpaceOnUse" id="RadialGradient_3" r="47.23">
<stop offset="0" stop-color="#ffffff"/>
<stop offset="1" stop-color="#000000" stop-opacity="0.551"/>
</radialGradient>
<radialGradient cx="78.6742" cy="84.1082" gradientTransform="matrix(1.64925 0 0 1.6057 -64.0836 -71.1414)" gradientUnits="userSpaceOnUse" id="RadialGradient_4" r="31.0634">
<stop offset="0.522509" stop-color="#fffbfb"/>
<stop offset="1" stop-color="#000000"/>
</radialGradient>
<radialGradient cx="78.6742" cy="84.1082" gradientTransform="matrix(1.64925 0 0 1.6057 -64.0836 -71.1414)" gradientUnits="userSpaceOnUse" id="RadialGradient_5" r="31.0634">
<stop offset="0.213161" stop-color="#fffbfb"/>
<stop offset="1" stop-color="#000000"/>
</radialGradient>
<radialGradient cx="76.4592" cy="72.39" gradientTransform="matrix(1.64925 0 0 1.6057 -64.0836 -71.1414)" gradientUnits="userSpaceOnUse" id="RadialGradient_6" r="4.69358">
<stop offset="0.213161" stop-color="#fffbfb"/>
<stop offset="1" stop-color="#000000"/>
</radialGradient>
</defs>
<g id="Untitled" vectornator:layerName="Untitled">
<g opacity="1" vectornator:blendMode="lighten">
<path d="M99.3165 115.744C99.3165 116.973 87.2968 117.97 72.4697 117.97C57.6426 117.97 45.6229 116.973 45.6229 115.744C45.6229 114.514 57.6426 113.517 72.4697 113.517C87.2968 113.517 99.3165 114.514 99.3165 115.744Z" fill="url(#RadialGradient)" fill-rule="nonzero" opacity="0.634" stroke="none"/>
<path d="M73.4048 55.2434C70.4182 55.1178 67.3485 55.4363 64.3047 56.2453C48.0778 60.558 38.4531 77.236 42.7483 93.3972C47.0435 109.558 63.6744 119.216 79.9 114.904C96.1256 110.591 105.752 93.9461 101.456 77.785C97.9666 64.6543 86.3533 55.7882 73.4048 55.2434Z" fill="#00316e" fill-rule="nonzero" opacity="1" stroke="none"/>
<path d="M100.14 78.1302C104.264 93.6183 95.0476 109.516 79.5575 113.633C64.0675 117.75 48.174 108.526 44.0647 93.0337C39.9402 77.5456 49.1568 61.6475 64.6468 57.5306C80.1368 53.4137 96.0303 62.6381 100.14 78.1302Z" fill="url(#LinearGradient)" fill-rule="nonzero" opacity="1" stroke="none"/>
<path d="M51.9751 64.7024C50.4215 66.2031 49.0271 67.8605 47.8501 69.6533C48.0897 69.5505 48.3906 69.4048 48.7636 69.24C49.3543 68.9789 49.3997 69.2033 49.6186 68.9274C49.8377 68.6515 49.9082 68.5816 49.8973 68.3076C49.8863 68.0334 49.641 67.9499 49.7516 67.3741C49.8621 66.7982 50.0954 67.2534 50.8701 66.7698C51.6449 66.2861 50.922 66.1167 51.2459 65.6808C51.5699 65.2448 51.4835 65.3183 52.0025 64.9339C52.4403 64.6095 52.1486 64.8319 51.9751 64.7024ZM79.6882 60.458C79.6151 60.484 79.5308 60.5541 79.448 60.7095C79.227 61.124 78.8596 61.4146 78.2772 61.5664C77.6946 61.7184 77.6517 61.6329 77.1354 61.9552C76.6189 62.2775 76.2045 62.091 76.4204 62.5375C76.6359 62.9841 76.8198 63.1227 76.8381 63.211C76.8565 63.2993 76.7062 63.9446 76.309 63.6587C75.9114 63.3728 75.0427 62.1159 75.5036 63.0029C75.9644 63.8898 76.6278 64.082 76.0993 64.3455C75.5706 64.609 75.5723 64.3994 75.4717 64.3588C75.3713 64.3182 75.3798 63.883 75.3014 63.6536C75.2228 63.4243 75.1371 63.2996 74.9949 63.2063C74.8528 63.1129 74.8425 62.9303 74.5948 62.9204C74.347 62.9105 74.5242 62.7395 74.1415 62.8191C73.7588 62.8987 73.3937 62.7434 73.5922 63.2551C73.7906 63.7666 73.8011 63.3912 74.1407 63.8427C74.4802 64.2941 74.845 63.8472 74.5948 64.2678C74.3444 64.6884 73.4657 64.7521 73.229 64.6478C72.9922 64.5434 73.0938 64.7297 72.6557 64.5444C72.2179 64.359 72.3049 64.1215 71.9062 64.4195C71.5075 64.7175 71.4388 65.1358 71.2314 65.0252C71.0241 64.9147 70.6826 65.3658 70.4986 65.22C70.3146 65.0739 69.7225 65.1954 69.6416 65.3966C69.5605 65.5977 69.206 65.6338 68.7546 65.9735C68.3031 66.313 68.4037 66.0688 67.8897 66.698C67.3753 67.327 67.1078 67.8223 66.8346 67.5412C66.5611 67.2604 65.3321 66.9338 65.7554 66.7535C66.1787 66.5734 66.3489 66.3477 66.6273 66.5047C66.9058 66.6618 67.261 66.5225 67.289 66.363C67.3172 66.2035 67.5563 66.0041 67.1662 65.901C66.7761 65.7978 66.7798 65.9294 66.1777 65.8397C65.5754 65.7499 66.1386 65.6946 65.3485 65.736C64.5586 65.7775 64.2278 65.7838 64.0096 65.7678C63.7915 65.7518 63.5082 65.8638 63.2078 65.8956C62.9071 65.9275 62.6927 65.9145 62.4337 65.999C62.1749 66.0836 62.0181 66.0549 61.7198 66.3934C61.4215 66.7319 61.176 66.897 60.9834 67.152C60.7908 67.407 60.2484 67.9526 60.1023 68.1366C59.9562 68.3205 59.4473 68.9293 59.4252 69.1182C59.4031 69.3072 59.5552 69.4165 59.3441 69.5832C59.133 69.7499 58.8912 69.8021 58.7206 69.8683C58.6353 69.9014 58.6225 69.828 58.6155 69.7939C58.6087 69.7999 58.5857 69.8273 58.5496 69.9308C58.4342 70.262 58.7187 71.312 58.8353 71.1341C58.9518 70.9562 58.7628 70.5134 59.5023 70.8203C60.2419 71.1271 60.6381 70.9722 60.6943 71.3904C60.7505 71.8087 61.2102 71.6853 61.2875 71.7615C61.3647 71.8374 61.6285 71.5685 61.6285 71.5685C61.6285 71.5685 62.188 71.0232 62.1451 70.8172C62.1023 70.6111 62.4218 70.0615 62.4218 70.0615C62.4218 70.0615 62.0895 69.9659 62.0282 69.6714C61.967 69.3772 62.0324 69.2784 62.0299 68.9717C62.0275 68.6652 61.7127 69.0326 62.4796 68.2894C63.2463 67.5464 63.3856 67.9121 63.3856 67.9121C63.3856 67.9121 63.5287 68.0203 63.4183 68.2275C63.3079 68.4348 63.133 68.9611 63.0863 69.0321C63.0396 69.1033 63.4656 69.5027 63.6126 69.4721C63.7599 69.4414 64.0341 69.2506 64.217 69.2432C64.3998 69.236 64.6623 69.0747 64.7628 69.1152C64.8635 69.1557 65.1085 69.2857 64.9919 69.4637C64.8753 69.6414 64.5818 69.887 64.3343 69.8772C64.0864 69.8675 63.6487 69.5284 63.9774 70.0744C64.306 70.6204 64.1033 70.8156 63.9205 70.8229C63.7379 70.8302 63.2971 70.6045 63.4478 71.0338C63.5986 71.463 63.2127 71.8519 63.1243 71.8703C63.0359 71.8886 62.861 71.9061 62.861 71.9061C62.861 71.9061 62.5928 71.9177 62.4458 71.9483C62.2985 71.9789 62.0314 72.195 61.9676 72.3312C61.9037 72.4673 61.7685 72.4097 61.6214 72.4403C61.4743 72.4709 61.5736 72.2592 61.2669 72.2616C60.9604 72.2639 60.7733 72.2446 60.6212 72.3991C60.469 72.5536 60.2126 72.6588 60.0764 72.5951C59.9403 72.5313 60.0817 72.2952 59.8705 72.4622C59.6595 72.6289 59.5572 72.9798 59.475 73.0278C59.4648 73.0337 59.4624 73.046 59.4633 73.0479C59.4504 73.0523 59.4853 73.0562 59.3879 73.085C59.0408 73.1881 58.9172 73.2948 58.7527 73.3903C58.5883 73.4861 58.8849 73.7954 58.5855 73.9805C58.2861 74.1656 58.4656 73.8539 58.1967 74.1862C57.928 74.5187 57.9297 74.7616 57.8182 74.8155C57.7065 74.8696 57.7361 74.9239 57.4772 75.0085C57.2183 75.093 57.2573 75.1297 57.1161 75.1898C56.975 75.2498 57.1654 75.2576 56.8293 75.266C56.4931 75.2745 56.2945 75.451 56.3778 75.5565C56.4611 75.662 57.605 75.7525 56.7746 75.8945C55.9442 76.0365 56.2463 76.1222 56.4473 76.2032C56.6485 76.2842 56.7635 76.3899 56.8581 76.4011C56.9526 76.4121 57.171 76.7443 57.171 76.7443C57.171 76.7443 57.4015 76.6616 57.2973 76.8983C57.193 77.1351 57.4134 77.1421 57.3212 77.4377C57.2292 77.7334 57.1898 77.5538 57.0843 77.6372C56.9788 77.7204 56.8407 77.9753 56.4799 77.866C56.1193 77.7567 55.8677 77.7066 55.4788 77.7569C55.0899 77.8069 55.3439 77.6931 55.1218 77.9541C54.8997 78.2155 54.8847 78.4693 54.9694 78.728C55.0539 78.9867 55.1648 79.3304 55.1131 79.5255C55.0615 79.7205 55.0964 79.895 55.2103 80.1478C55.3244 80.4004 55.5232 80.491 55.5232 80.491C55.5232 80.491 55.9523 80.4601 56.0467 80.4713C56.1411 80.4824 56.2882 80.3578 56.5542 80.4558C56.8204 80.5541 57.0661 80.5659 57.1765 80.3586C57.287 80.1515 57.8451 79.8283 57.9852 79.615C58.125 79.4016 58.2274 79.3158 58.1024 79.1574C57.9773 78.9991 58.142 78.4982 58.2708 78.3793C58.3995 78.2604 58.7106 78.1089 58.7106 78.1089L58.9574 77.4975C58.9574 77.4975 59.1824 77.1251 59.3357 77.1241C59.489 77.1229 60.3778 77.2373 60.2395 76.8668C60.101 76.4962 60.191 76.3611 60.3099 76.4899C60.4288 76.6187 60.6539 76.5008 60.6539 76.5008C60.6539 76.5008 60.7671 76.4237 60.8737 76.4936C60.9803 76.5634 61.1656 76.9268 61.3607 76.9782C61.5558 77.0298 61.7285 77.0845 61.8585 77.1187C61.9885 77.1532 62.0854 77.0661 62.3639 77.2232C62.6422 77.3804 62.9085 77.4443 62.9561 77.5263C63.0041 77.6084 63.2436 77.774 63.2436 77.774C63.2436 77.774 63.4722 77.7969 63.4378 77.927C63.4034 78.057 63.1784 78.4712 63.0434 78.5606C62.9083 78.6501 62.4978 78.6068 62.6695 78.6941C62.841 78.7812 63.0848 78.8936 63.1547 78.7868C63.2247 78.6802 63.6544 77.9718 63.6544 77.9718C63.6497 77.9577 63.6359 77.9156 63.6322 77.8242C63.6251 77.6416 63.5497 77.4374 63.7153 77.4951C63.8808 77.5529 63.9931 77.6444 64.0274 77.5145C64.0618 77.3844 64.1391 77.433 63.9734 77.3753C63.8077 77.3175 63.3497 76.9001 63.1668 76.9075C62.984 76.9147 62.4843 76.7137 62.4843 76.7137C62.4843 76.7137 62.3637 76.6479 62.1086 76.4553C61.8535 76.2626 61.818 76.3271 61.716 76.1333C61.6144 75.9395 61.3855 75.7139 61.7217 75.7054C62.0579 75.6968 62.2981 75.8604 62.6293 75.9758C62.9605 76.0913 62.9199 76.1573 63.2215 76.2789C63.5231 76.4005 63.5928 76.5746 63.7926 76.5024C63.9925 76.4301 64.2575 76.5256 64.3126 76.7906C64.3677 77.0556 64.482 77.328 64.5532 77.3747C64.6244 77.4215 64.8252 77.5159 64.9086 77.6214C64.992 77.7269 65.1747 77.9842 65.2873 78.0836C65.4002 78.1829 65.5047 78.2576 65.6237 78.3865C65.7426 78.5152 65.727 78.3428 65.8275 78.3835C65.9282 78.4239 66.0379 78.3665 66.0135 78.2488C65.989 78.1311 65.9766 77.9175 65.9766 77.9175C65.9766 77.9175 66.3669 77.7122 66.2369 77.6777C66.1068 77.6434 65.6896 77.3658 65.6947 77.2419C65.6997 77.1181 65.6162 76.8821 65.7693 76.881C65.9227 76.8796 66.1252 77.1186 66.4001 76.8157C66.6749 76.5127 67.0264 76.3173 66.982 76.6951C66.9379 77.0729 67.1077 77.0952 67.1576 77.4842C67.208 77.8731 67.3224 77.7226 67.5714 77.8859C67.8203 78.0492 67.9746 78.0493 68.134 78.0775C68.2935 78.1058 68.5229 78.0318 68.7647 78.0122C69.0064 77.9926 69.1358 77.8394 69.3542 77.8555C69.5723 77.8715 70.0234 77.6956 70.1241 77.7362C70.2247 77.7766 70.5435 77.525 70.6157 77.7249C70.688 77.9249 70.7522 77.6572 70.7619 78.1465C70.7715 78.6359 70.7144 78.9949 70.7144 78.9949C70.5192 79.6805 70.4333 79.8487 70.2922 79.9087C70.1513 79.9687 70.0862 80.078 69.8152 80.1037C69.5441 80.1293 69.2224 80.2231 68.8213 80.2144C68.4202 80.2056 67.7559 80.5304 67.4249 80.415C67.0937 80.2996 66.7081 80.5261 66.4884 80.3568C66.269 80.1874 65.9885 80.2796 65.8462 80.1864C65.704 80.0932 65.5772 79.7779 65.6752 80.2489C65.7732 80.72 65.5092 80.8154 65.4993 81.0632C65.4893 81.3109 65.6073 81.1525 65.2773 81.1904C64.9473 81.2282 64.898 81.4353 64.3536 81.1801C63.8089 80.9248 63.5793 80.9579 63.3133 80.8596C63.0469 80.7614 62.8981 81.2246 62.5648 80.8027C62.2312 80.3806 61.985 80.8337 61.8759 80.4571C61.7669 80.0803 61.8068 80.1083 61.7872 79.8666C61.7679 79.6249 62.0403 79.3553 61.8748 79.2976C61.7091 79.2399 61.797 79.0663 61.6094 79.1975C61.4216 79.3287 61.1362 79.4143 60.919 79.5516C60.7018 79.689 61.4401 79.4373 60.3104 79.7645C59.1806 80.0916 58.8946 80.2773 58.8946 80.2773C58.8946 80.2773 58.7911 80.2402 58.6683 80.3886C58.5457 80.5369 58.3817 80.7574 58.1573 80.712C57.9329 80.6664 57.817 80.7133 57.6466 80.7795C57.476 80.8457 57.324 80.7048 57.1485 80.8948C56.9729 81.0847 56.7372 81.1909 56.6365 81.1503C56.5355 81.1091 56.3489 80.9027 56.3489 80.9027L56.0192 81.5873L55.7885 81.9385L55.2753 82.3819L55.2315 82.6665C55.2315 82.6665 55.0457 82.951 55.1059 83.0921C55.1661 83.2333 55.2319 83.5021 55.2319 83.5021C55.2319 83.5021 54.9016 83.9705 54.7493 84.125C54.5971 84.2794 54.4124 84.5898 54.4124 84.5898C54.4124 84.5898 54.2928 84.8033 54.2167 84.8805C54.1407 84.9576 54.0331 85.159 53.952 85.3602C53.8709 85.5615 53.7872 85.7065 53.7467 85.8071C53.7062 85.9076 53.5738 86.1474 53.5529 86.4897C53.532 86.832 53.3685 87.272 53.3685 87.272L53.3387 87.4164C53.4724 87.9108 53.494 88.0039 53.5897 88.1684C53.6853 88.3327 53.7322 88.2586 53.7528 88.6538C53.7735 89.0486 53.8019 89.2081 53.7798 89.397C53.7576 89.5857 53.6544 89.9434 53.6263 90.103C53.5979 90.2624 53.832 90.4918 53.832 90.4918C53.832 90.4918 53.9954 90.8532 53.9548 90.9538C53.9143 91.0544 54.0384 91.2044 54.0384 91.2044C54.0384 91.2044 54.4353 91.343 54.5776 91.4364C54.7198 91.5296 54.9543 91.6678 55.0021 91.7499C55.05 91.8322 55.3818 92.1852 55.4295 92.2674C55.4773 92.3496 55.7745 92.6248 55.8518 92.701C55.929 92.7771 56.2847 93.0464 56.2847 93.0464C56.2847 93.0464 56.7321 93.2585 56.8451 93.358C56.9578 93.4573 57.2449 93.4604 57.3514 93.5304C57.4582 93.6003 57.6559 93.5198 57.792 93.5839C57.9282 93.6476 58.1323 93.4584 58.2625 93.4929C58.3924 93.5273 58.6909 93.3508 58.767 93.2736C58.843 93.1963 59.0051 92.9382 59.1707 92.9957C59.3362 93.0533 59.4099 92.9454 59.5339 92.9503C59.6576 92.9553 59.789 92.7734 59.9067 92.7489C60.0246 92.7244 60.307 92.5521 60.3953 92.5338C60.4837 92.5154 60.729 92.2677 60.8468 92.2432C60.9644 92.2188 61.0932 92.0731 61.2525 92.1013C61.4119 92.1294 61.3197 91.9751 61.603 92.0081C61.8863 92.0412 61.9561 91.9355 62.0628 92.0053C62.1696 92.0754 62.2706 91.9572 62.3834 92.0566C62.4961 92.1558 62.6573 92.2159 62.7113 92.3276C62.7651 92.4394 62.9659 92.5158 62.9659 92.5158L63.1496 92.501C63.1496 92.501 63.3447 92.2873 63.4279 92.393C63.5113 92.4984 63.7719 92.4039 63.7719 92.4039L64.1073 92.6388L64.2208 92.7451C64.2208 92.7451 64.4987 93.1859 64.5059 93.3686C64.5132 93.5513 64.5816 93.9256 64.5117 94.0322C64.4418 94.139 64.4593 94.5408 64.4593 94.5408C64.4593 94.5408 64.3659 94.6769 64.6798 94.8574C64.9939 95.038 65.2176 95.2163 65.3303 95.3156C65.4433 95.415 65.7505 95.6841 65.8225 95.884C65.8949 96.0839 65.9815 96.1864 66.1544 96.4269C66.3273 96.6674 66.4795 96.6761 66.5702 96.9645C66.661 97.2526 66.7199 97.2379 66.7333 97.4499C66.7468 97.6621 66.664 97.7002 66.7829 97.829C66.9018 97.9579 67.0726 98.2063 67.0618 98.3006C67.0507 98.395 67.073 98.7923 67.073 98.7923L67.0517 98.9685L66.8802 99.5428L66.7685 99.8283C66.7525 100.047 66.673 100.292 66.7636 100.58C66.8542 100.868 66.6831 100.891 66.9798 101.137C67.2766 101.382 67.4648 101.692 67.6672 101.926C67.8695 102.16 68.0105 102.397 68.0765 102.568C68.1428 102.738 68.2709 102.776 68.3787 102.999C68.4865 103.222 68.5272 103.333 68.5578 103.48C68.5884 103.627 68.6454 104.026 68.7229 104.102C68.8 104.178 68.8874 104.427 68.9413 104.538C68.9952 104.65 68.8786 104.702 69.0981 104.872C69.3177 105.041 69.4634 105.141 69.6117 105.264C69.7601 105.387 69.7202 105.336 69.8515 105.524C69.9826 105.712 70.1236 105.793 70.1898 105.963C70.256 106.133 70.3743 106.578 70.5056 106.766C70.6367 106.954 70.8068 107.129 70.8068 107.129C70.8068 107.129 71.1644 107.28 71.276 107.226C71.3875 107.173 71.5761 106.856 71.7711 106.907C71.9662 106.959 72.0902 106.831 72.2373 106.8C72.3845 106.77 72.498 106.569 72.6452 106.538C72.7924 106.508 72.9506 106.218 73.0808 106.252C73.2107 106.286 73.3318 106.145 73.4484 105.967C73.5651 105.789 73.6196 105.66 73.8354 105.369C74.0514 105.079 74.0264 105.088 74.1724 104.904C74.3185 104.72 74.4368 104.356 74.6306 104.254C74.8243 104.152 74.831 103.926 74.8593 103.767C74.8876 103.607 74.8976 103.518 74.9615 103.381C75.0255 103.245 74.9961 103.41 75.0638 102.996C75.1314 102.583 75.2881 102.39 75.4169 102.271C75.5457 102.152 75.5973 101.959 75.6794 101.911C75.7616 101.864 75.9263 101.958 75.8123 101.706C75.6985 101.453 75.6787 101.053 75.6016 100.977C75.5242 100.901 75.5049 101.211 75.4426 100.763C75.3804 100.316 75.5962 99.8016 75.5962 99.8016C75.5962 99.8016 75.9277 99.15 76.0566 99.0311C76.1856 98.9122 76.2012 98.8152 76.3829 98.6545C76.5643 98.494 76.9472 98.1141 76.9165 97.9669C76.8859 97.8196 76.9811 97.3949 76.9627 97.3065C76.9443 97.2182 76.9159 97.1342 76.753 96.6458C76.59 96.1578 76.7395 96.2527 76.4649 95.8185C76.1904 95.3842 76.0364 94.7982 75.8883 94.6755C75.7398 94.5527 75.7274 94.1601 75.703 94.0425C75.6785 93.9248 75.8223 93.5841 75.8861 93.4481C75.9499 93.3118 76.2317 92.7592 76.2317 92.7592C76.2317 92.7592 76.6715 91.9658 76.8103 91.5992C76.9491 91.2323 77.095 90.9058 77.2177 90.7575C77.3405 90.6092 77.6363 90.2627 77.7811 89.9255C77.926 89.5884 78.2338 88.9418 78.245 88.8471C78.2559 88.7529 78.4184 88.4087 78.4184 88.4087C78.4184 88.4087 78.6683 87.9594 78.6844 87.7411C78.7003 87.5227 78.7629 86.3141 78.7163 86.3852C78.67 86.4564 78.3161 86.5867 78.2043 86.6407C78.0929 86.6947 78.4141 86.7474 77.548 86.8663C76.6821 86.9848 76.2778 87.2209 76.2778 87.2209C76.0004 87.2171 75.8595 87.5675 75.6853 87.1737C75.5114 86.7802 75.3982 86.5477 75.1605 86.29C74.9225 86.0323 74.7791 85.9408 74.4348 85.613C74.0903 85.2855 74.15 85.4669 73.8532 85.2218C73.5566 84.9763 73.5208 85.0742 73.2941 84.7223C73.0673 84.3702 72.9753 84.5408 72.6884 84.0475C72.4014 83.5542 72.2822 83.516 72.1327 83.2401C71.983 82.9642 71.8342 82.9031 71.7201 82.6505C71.6061 82.3977 70.6486 81.1746 70.5418 81.1046C70.435 81.0348 70.1959 80.6069 70.2437 80.6892C70.2917 80.7713 70.7638 80.9773 70.7638 80.9773C70.7638 80.9773 70.9728 80.8314 71.0612 80.813C71.1495 80.7946 71.5737 81.0473 71.5982 81.1649C71.6227 81.2828 72.3628 81.7122 72.5955 82.0937C72.8284 82.4753 73.0647 82.73 73.1183 82.8417C73.172 82.9533 73.5695 83.3642 73.7241 83.5164C73.8784 83.6687 74.333 83.9493 74.4286 84.1137C74.5242 84.2782 75.1997 84.75 75.2793 85.1327C75.3589 85.5154 75.731 85.9613 75.785 86.0728C75.839 86.1844 76.4028 86.2156 76.4028 86.2156L77.0699 85.9019C77.0699 85.9019 77.9859 85.0035 78.1038 84.979C78.2214 84.9545 79.0695 84.313 79.0695 84.313C79.0695 84.313 79.3811 83.8865 79.6031 83.6254C79.8252 83.3641 80.0393 82.9081 80.0615 82.719C80.0835 82.5301 80.197 82.4886 80.3773 82.1745C80.5577 81.8605 80.8363 81.5175 80.5935 81.3837C80.3506 81.25 80.2453 81.3434 79.8898 81.1102C79.5341 80.8772 79.576 80.9273 79.2903 80.5873C79.0046 80.2476 79.136 79.7613 78.7862 80.2949C78.4366 80.8283 78.6492 80.8944 78.226 81.0749C77.8029 81.2548 77.6775 81.5944 77.4103 81.3428C77.143 81.0912 76.9739 81.3177 76.764 80.9006C76.5545 80.4835 76.4653 80.4686 76.3993 80.2982C76.3332 80.1276 76.3704 80.1204 76.043 79.7277C75.7157 79.3351 75.733 78.6132 75.9597 78.9653C76.1866 79.3174 76.4376 79.3381 76.8756 79.5235C77.3133 79.7088 77.5364 79.8763 77.8957 79.8323C78.2551 79.7881 78.551 79.6951 78.6221 79.7416C78.6932 79.7883 78.7259 79.6776 78.8854 79.7057C79.045 79.734 79.0747 79.5742 79.1826 79.7972C79.2905 80.0206 79.6173 79.9955 79.795 80.112C79.9729 80.2286 79.9722 80.1685 80.3673 80.1476C80.7624 80.1269 81.2848 80.006 81.2848 80.006L81.8466 79.8738L82.4891 79.7883C82.4891 79.7883 83.0254 79.963 83.143 79.9386C83.2607 79.9141 83.3615 80.2229 83.6927 80.3383C84.0239 80.4537 84.0814 80.4677 84.3008 80.6371C84.5207 80.8065 84.5127 80.9127 84.791 81.0697C85.0696 81.227 85.3984 80.9126 85.4389 80.8122C85.4791 80.7116 85.7554 80.5 85.7458 80.7477C85.7358 80.9954 86.0633 80.8284 86.0914 81.4063C86.1195 81.9838 86.0242 81.8474 86.2511 82.1996C86.4779 82.5517 87.3815 83.6055 87.4845 83.9526C87.5876 84.2997 87.7271 84.1415 87.8239 84.4594C87.9208 84.7769 88.1322 84.8622 88.1812 85.0978C88.2302 85.3334 88.4492 85.3499 88.5153 85.5207C88.5817 85.6912 88.8674 85.4699 88.9496 85.4223C89.0319 85.3743 89.3578 84.9045 89.3578 84.9045C89.3578 84.9045 89.5351 84.8117 89.4441 84.5233C89.3534 84.2353 89.39 84.2874 89.2981 83.8458C89.2063 83.4042 89.0369 83.4379 89.0334 82.9781C89.0299 82.5182 89.1986 82.2101 89.2147 81.9918C89.2307 81.7736 89.4012 81.3697 89.5126 81.3157C89.6242 81.2618 90.1967 80.7973 90.3011 80.5604C90.4054 80.3238 90.5983 80.034 90.7849 79.7496C90.9713 79.4652 91.3252 79.0983 91.432 79.1682C91.5386 79.2382 91.4928 79.2118 91.6401 79.1812C91.7872 79.1505 92.0799 79.2089 92.292 79.1955C92.5043 79.182 93.0219 79.6037 93.1653 79.8503C93.3087 80.0969 93.2371 80.0395 93.6406 80.355C94.044 80.6703 94.2897 80.3846 94.3877 80.8558C94.4856 81.3269 94.476 81.2854 94.6601 81.4315C94.844 81.5776 94.9217 81.0507 95.1106 81.073C95.2994 81.0952 95.3143 80.9738 95.5594 81.4142C95.8046 81.8547 95.8887 81.8342 96.0163 82.299C96.1437 82.7639 95.9947 82.3274 96.0744 82.71C96.154 83.0928 96.1291 83.138 96.2615 83.4789C96.3937 83.8203 96.6252 83.8847 96.6083 83.9496C96.6083 83.9496 96.6799 83.42 96.5474 83.0789C96.4154 82.7379 96.3594 82.2182 96.4761 82.0404C96.5926 81.8624 96.7068 81.6878 96.904 82.046C97.1014 82.4041 97.1054 82.0911 97.4621 82.4776C97.8191 82.8642 98.0403 82.7358 98.1126 82.9358C98.185 83.1358 98.335 83.1391 98.5774 83.2727C98.8203 83.4066 98.9533 83.1581 99.1521 82.9324C99.3511 82.7067 99.8624 81.93 99.837 81.6588C99.8112 81.3878 100.084 81.3794 99.4724 80.8006C98.8605 80.2214 98.8225 79.9874 98.2364 79.6793C97.6505 79.3712 97.3391 79.4146 97.6117 78.805C97.8842 78.1954 97.992 77.8015 98.258 77.8998C98.5242 77.9979 98.9356 77.8827 99.0581 78.4717C99.1806 79.0604 99.1918 79.7379 99.457 78.9456C99.689 78.2523 99.8039 77.8079 99.768 77.8055C99.7274 77.872 99.9721 77.5466 99.9721 77.5466C97.8264 70.095 92.9336 64.1392 86.6936 60.5064C86.6745 60.5144 86.6515 60.5336 86.6341 60.5393C86.3755 60.6238 85.7766 60.6847 85.5521 60.6393C85.3275 60.5939 85.228 60.4037 84.4807 60.6511C83.7337 60.8987 83.2921 60.9854 83.3902 60.7192C83.4885 60.4531 83.6112 60.1748 83.6933 60.127C83.7756 60.0792 83.9529 59.8898 83.7934 59.8616C83.6341 59.8332 83.4604 59.78 83.1011 59.8239C82.7416 59.868 82.803 60.0129 82.261 60.0642C81.7189 60.1156 82.5201 59.7884 81.4371 60.0444C80.354 60.3005 80.1019 60.4572 79.9842 60.4817C79.9105 60.4971 79.8097 60.4148 79.688 60.4581L79.6882 60.458ZM95.8905 85.4195L95.8193 85.4725C95.8193 85.4725 96.0631 85.6877 96.1758 85.7871C96.2886 85.8864 96.3015 86.07 96.5503 86.2334C96.7993 86.3966 96.8617 86.5762 96.9917 86.6107C97.1217 86.6452 97.4723 87.1269 97.5974 87.2854C97.7224 87.4435 97.9373 87.5815 98.0918 87.7339C98.2463 87.886 98.5677 88.2118 98.8472 88.5224C99.1269 88.8326 99.2931 88.9612 99.4476 89.1132C99.6021 89.2653 99.9911 89.3611 99.9911 89.3611C99.9911 89.3611 100.137 89.308 100.271 89.0651C100.404 88.8223 100.293 88.5895 100.274 88.5013C100.256 88.4129 99.9963 88.1924 99.9487 88.1102C99.9007 88.028 99.7674 87.8149 99.6315 87.7511C99.4954 87.687 99.3326 87.4963 99.0469 87.156C98.7612 86.8163 99.0538 87.1668 98.4836 86.6406C97.9133 86.1142 98.0222 86.4876 97.6556 86.3489C97.289 86.2101 97.1824 86.141 96.9987 85.9948C96.8144 85.8489 96.5244 85.3869 96.2951 85.4655C96.0657 85.544 95.8906 85.4195 95.8906 85.4195L95.8905 85.4195ZM46.4432 99.1414C46.947 100.097 47.512 101.006 48.1111 101.888C48.1577 101.695 48.1959 101.853 48.2684 101.709C48.3556 101.538 48.3173 101.401 48.4695 101.247C48.6215 101.092 48.7415 100.578 48.7389 100.271C48.7366 99.9644 48.6053 100.111 48.6214 99.8928C48.6375 99.6746 48.3022 99.8095 48.1417 99.6281C47.9809 99.4463 47.9608 99.6678 47.8126 99.545C47.6644 99.4221 47.451 99.5535 47.3137 99.3364C47.1899 99.1405 46.8502 99.2482 46.4432 99.1414ZM80.0726 96.173C80.0517 96.5153 79.8298 97.0562 79.8298 97.0562L79.2922 97.4719C79.2922 97.4719 79.1203 97.6981 79.0084 97.752C78.8968 97.8058 78.6323 98.0055 78.6323 98.0055C78.6323 98.0055 78.3647 97.9967 78.5079 98.2432C78.6513 98.4898 78.749 98.8212 78.7378 98.9155C78.7269 99.01 78.7563 99.1907 78.8053 99.4263C78.8543 99.6617 78.8336 99.9621 78.6986 100.052C78.5637 100.141 78.42 100.23 78.4923 100.431C78.5647 100.63 78.6923 101.247 78.6923 101.247L79.2036 101.759C79.2036 101.759 79.3016 101.652 79.5372 101.603C79.7725 101.554 79.9685 101.3 79.9685 101.3C79.9685 101.3 80.2367 101.299 80.1397 100.982C80.0429 100.664 80.1237 100.245 80.0756 100.163C80.028 100.081 80.241 99.6494 80.2227 99.5613C80.2043 99.4729 80.4026 98.9868 80.3719 98.8394C80.3413 98.6922 80.5103 98.4243 80.503 98.2417C80.4956 98.0587 80.4257 97.6326 80.4601 97.5026C80.4946 97.3727 80.5072 97.2562 80.4827 97.1385L80.4055 96.7838C80.4055 96.7838 80.0726 96.173 80.0726 96.173Z" fill="url(#LinearGradient_2)" fill-rule="nonzero" opacity="1" stroke="none"/>
<path d="M51.9751 64.7024C50.4215 66.2031 49.0271 67.8605 47.8501 69.6533C48.0897 69.5505 48.3906 69.4048 48.7636 69.24C49.3543 68.9789 49.3997 69.2033 49.6186 68.9274C49.8377 68.6515 49.9082 68.5816 49.8973 68.3076C49.8863 68.0334 49.641 67.9499 49.7516 67.3741C49.8621 66.7982 50.0954 67.2534 50.8701 66.7698C51.6449 66.2861 50.922 66.1167 51.2459 65.6808C51.5699 65.2448 51.4835 65.3183 52.0025 64.9339C52.4403 64.6095 52.1486 64.8319 51.9751 64.7024ZM79.6882 60.458C79.6151 60.484 79.5308 60.5541 79.448 60.7095C79.227 61.124 78.8596 61.4146 78.2772 61.5664C77.6946 61.7184 77.6517 61.6329 77.1354 61.9552C76.6189 62.2775 76.2045 62.091 76.4204 62.5375C76.6359 62.9841 76.8198 63.1227 76.8381 63.211C76.8565 63.2993 76.7062 63.9446 76.309 63.6587C75.9114 63.3728 75.0427 62.1159 75.5036 63.0029C75.9644 63.8898 76.6278 64.082 76.0993 64.3455C75.5706 64.609 75.5723 64.3994 75.4717 64.3588C75.3713 64.3182 75.3798 63.883 75.3014 63.6536C75.2228 63.4243 75.1371 63.2996 74.9949 63.2063C74.8528 63.1129 74.8425 62.9303 74.5948 62.9204C74.347 62.9105 74.5242 62.7395 74.1415 62.8191C73.7588 62.8987 73.3937 62.7434 73.5922 63.2551C73.7906 63.7666 73.8011 63.3912 74.1407 63.8427C74.4802 64.2941 74.845 63.8472 74.5948 64.2678C74.3444 64.6884 73.4657 64.7521 73.229 64.6478C72.9922 64.5434 73.0938 64.7297 72.6557 64.5444C72.2179 64.359 72.3049 64.1215 71.9062 64.4195C71.5075 64.7175 71.4388 65.1358 71.2314 65.0252C71.0241 64.9147 70.6826 65.3658 70.4986 65.22C70.3146 65.0739 69.7225 65.1954 69.6416 65.3966C69.5605 65.5977 69.206 65.6338 68.7546 65.9735C68.3031 66.313 68.4037 66.0688 67.8897 66.698C67.3753 67.327 67.1078 67.8223 66.8346 67.5412C66.5611 67.2604 65.3321 66.9338 65.7554 66.7535C66.1787 66.5734 66.3489 66.3477 66.6273 66.5047C66.9058 66.6618 67.261 66.5225 67.289 66.363C67.3172 66.2035 67.5563 66.0041 67.1662 65.901C66.7761 65.7978 66.7798 65.9294 66.1777 65.8397C65.5754 65.7499 66.1386 65.6946 65.3485 65.736C64.5586 65.7775 64.2278 65.7838 64.0096 65.7678C63.7915 65.7518 63.5082 65.8638 63.2078 65.8956C62.9071 65.9275 62.6927 65.9145 62.4337 65.999C62.1749 66.0836 62.0181 66.0549 61.7198 66.3934C61.4215 66.7319 61.176 66.897 60.9834 67.152C60.7908 67.407 60.2484 67.9526 60.1023 68.1366C59.9562 68.3205 59.4473 68.9293 59.4252 69.1182C59.4031 69.3072 59.5552 69.4165 59.3441 69.5832C59.133 69.7499 58.8912 69.8021 58.7206 69.8683C58.6353 69.9014 58.6225 69.828 58.6155 69.7939C58.6087 69.7999 58.5857 69.8273 58.5496 69.9308C58.4342 70.262 58.7187 71.312 58.8353 71.1341C58.9518 70.9562 58.7628 70.5134 59.5023 70.8203C60.2419 71.1271 60.6381 70.9722 60.6943 71.3904C60.7505 71.8087 61.2102 71.6853 61.2875 71.7615C61.3647 71.8374 61.6285 71.5685 61.6285 71.5685C61.6285 71.5685 62.188 71.0232 62.1451 70.8172C62.1023 70.6111 62.4218 70.0615 62.4218 70.0615C62.4218 70.0615 62.0895 69.9659 62.0282 69.6714C61.967 69.3772 62.0324 69.2784 62.0299 68.9717C62.0275 68.6652 61.7127 69.0326 62.4796 68.2894C63.2463 67.5464 63.3856 67.9121 63.3856 67.9121C63.3856 67.9121 63.5287 68.0203 63.4183 68.2275C63.3079 68.4348 63.133 68.9611 63.0863 69.0321C63.0396 69.1033 63.4656 69.5027 63.6126 69.4721C63.7599 69.4414 64.0341 69.2506 64.217 69.2432C64.3998 69.236 64.6623 69.0747 64.7628 69.1152C64.8635 69.1557 65.1085 69.2857 64.9919 69.4637C64.8753 69.6414 64.5818 69.887 64.3343 69.8772C64.0864 69.8675 63.6487 69.5284 63.9774 70.0744C64.306 70.6204 64.1033 70.8156 63.9205 70.8229C63.7379 70.8302 63.2971 70.6045 63.4478 71.0338C63.5986 71.463 63.2127 71.8519 63.1243 71.8703C63.0359 71.8886 62.861 71.9061 62.861 71.9061C62.861 71.9061 62.5928 71.9177 62.4458 71.9483C62.2985 71.9789 62.0314 72.195 61.9676 72.3312C61.9037 72.4673 61.7685 72.4097 61.6214 72.4403C61.4743 72.4709 61.5736 72.2592 61.2669 72.2616C60.9604 72.2639 60.7733 72.2446 60.6212 72.3991C60.469 72.5536 60.2126 72.6588 60.0764 72.5951C59.9403 72.5313 60.0817 72.2952 59.8705 72.4622C59.6595 72.6289 59.5572 72.9798 59.475 73.0278C59.4648 73.0337 59.4624 73.046 59.4633 73.0479C59.4504 73.0523 59.4853 73.0562 59.3879 73.085C59.0408 73.1881 58.9172 73.2948 58.7527 73.3903C58.5883 73.4861 58.8849 73.7954 58.5855 73.9805C58.2861 74.1656 58.4656 73.8539 58.1967 74.1862C57.928 74.5187 57.9297 74.7616 57.8182 74.8155C57.7065 74.8696 57.7361 74.9239 57.4772 75.0085C57.2183 75.093 57.2573 75.1297 57.1161 75.1898C56.975 75.2498 57.1654 75.2576 56.8293 75.266C56.4931 75.2745 56.2945 75.451 56.3778 75.5565C56.4611 75.662 57.605 75.7525 56.7746 75.8945C55.9442 76.0365 56.2463 76.1222 56.4473 76.2032C56.6485 76.2842 56.7635 76.3899 56.8581 76.4011C56.9526 76.4121 57.171 76.7443 57.171 76.7443C57.171 76.7443 57.4015 76.6616 57.2973 76.8983C57.193 77.1351 57.4134 77.1421 57.3212 77.4377C57.2292 77.7334 57.1898 77.5538 57.0843 77.6372C56.9788 77.7204 56.8407 77.9753 56.4799 77.866C56.1193 77.7567 55.8677 77.7066 55.4788 77.7569C55.0899 77.8069 55.3439 77.6931 55.1218 77.9541C54.8997 78.2155 54.8847 78.4693 54.9694 78.728C55.0539 78.9867 55.1648 79.3304 55.1131 79.5255C55.0615 79.7205 55.0964 79.895 55.2103 80.1478C55.3244 80.4004 55.5232 80.491 55.5232 80.491C55.5232 80.491 55.9523 80.4601 56.0467 80.4713C56.1411 80.4824 56.2882 80.3578 56.5542 80.4558C56.8204 80.5541 57.0661 80.5659 57.1765 80.3586C57.287 80.1515 57.8451 79.8283 57.9852 79.615C58.125 79.4016 58.2274 79.3158 58.1024 79.1574C57.9773 78.9991 58.142 78.4982 58.2708 78.3793C58.3995 78.2604 58.7106 78.1089 58.7106 78.1089L58.9574 77.4975C58.9574 77.4975 59.1824 77.1251 59.3357 77.1241C59.489 77.1229 60.3778 77.2373 60.2395 76.8668C60.101 76.4962 60.191 76.3611 60.3099 76.4899C60.4288 76.6187 60.6539 76.5008 60.6539 76.5008C60.6539 76.5008 60.7671 76.4237 60.8737 76.4936C60.9803 76.5634 61.1656 76.9268 61.3607 76.9782C61.5558 77.0298 61.7285 77.0845 61.8585 77.1187C61.9885 77.1532 62.0854 77.0661 62.3639 77.2232C62.6422 77.3804 62.9085 77.4443 62.9561 77.5263C63.0041 77.6084 63.2436 77.774 63.2436 77.774C63.2436 77.774 63.4722 77.7969 63.4378 77.927C63.4034 78.057 63.1784 78.4712 63.0434 78.5606C62.9083 78.6501 62.4978 78.6068 62.6695 78.6941C62.841 78.7812 63.0848 78.8936 63.1547 78.7868C63.2247 78.6802 63.6544 77.9718 63.6544 77.9718C63.6497 77.9577 63.6359 77.9156 63.6322 77.8242C63.6251 77.6416 63.5497 77.4374 63.7153 77.4951C63.8808 77.5529 63.9931 77.6444 64.0274 77.5145C64.0618 77.3844 64.1391 77.433 63.9734 77.3753C63.8077 77.3175 63.3497 76.9001 63.1668 76.9075C62.984 76.9147 62.4843 76.7137 62.4843 76.7137C62.4843 76.7137 62.3637 76.6479 62.1086 76.4553C61.8535 76.2626 61.818 76.3271 61.716 76.1333C61.6144 75.9395 61.3855 75.7139 61.7217 75.7054C62.0579 75.6968 62.2981 75.8604 62.6293 75.9758C62.9605 76.0913 62.9199 76.1573 63.2215 76.2789C63.5231 76.4005 63.5928 76.5746 63.7926 76.5024C63.9925 76.4301 64.2575 76.5256 64.3126 76.7906C64.3677 77.0556 64.482 77.328 64.5532 77.3747C64.6244 77.4215 64.8252 77.5159 64.9086 77.6214C64.992 77.7269 65.1747 77.9842 65.2873 78.0836C65.4002 78.1829 65.5047 78.2576 65.6237 78.3865C65.7426 78.5152 65.727 78.3428 65.8275 78.3835C65.9282 78.4239 66.0379 78.3665 66.0135 78.2488C65.989 78.1311 65.9766 77.9175 65.9766 77.9175C65.9766 77.9175 66.3669 77.7122 66.2369 77.6777C66.1068 77.6434 65.6896 77.3658 65.6947 77.2419C65.6997 77.1181 65.6162 76.8821 65.7693 76.881C65.9227 76.8796 66.1252 77.1186 66.4001 76.8157C66.6749 76.5127 67.0264 76.3173 66.982 76.6951C66.9379 77.0729 67.1077 77.0952 67.1576 77.4842C67.208 77.8731 67.3224 77.7226 67.5714 77.8859C67.8203 78.0492 67.9746 78.0493 68.134 78.0775C68.2935 78.1058 68.5229 78.0318 68.7647 78.0122C69.0064 77.9926 69.1358 77.8394 69.3542 77.8555C69.5723 77.8715 70.0234 77.6956 70.1241 77.7362C70.2247 77.7766 70.5435 77.525 70.6157 77.7249C70.688 77.9249 70.7522 77.6572 70.7619 78.1465C70.7715 78.6359 70.7144 78.9949 70.7144 78.9949C70.5192 79.6805 70.4333 79.8487 70.2922 79.9087C70.1513 79.9687 70.0862 80.078 69.8152 80.1037C69.5441 80.1293 69.2224 80.2231 68.8213 80.2144C68.4202 80.2056 67.7559 80.5304 67.4249 80.415C67.0937 80.2996 66.7081 80.5261 66.4884 80.3568C66.269 80.1874 65.9885 80.2796 65.8462 80.1864C65.704 80.0932 65.5772 79.7779 65.6752 80.2489C65.7732 80.72 65.5092 80.8154 65.4993 81.0632C65.4893 81.3109 65.6073 81.1525 65.2773 81.1904C64.9473 81.2282 64.898 81.4353 64.3536 81.1801C63.8089 80.9248 63.5793 80.9579 63.3133 80.8596C63.0469 80.7614 62.8981 81.2246 62.5648 80.8027C62.2312 80.3806 61.985 80.8337 61.8759 80.4571C61.7669 80.0803 61.8068 80.1083 61.7872 79.8666C61.7679 79.6249 62.0403 79.3553 61.8748 79.2976C61.7091 79.2399 61.797 79.0663 61.6094 79.1975C61.4216 79.3287 61.1362 79.4143 60.919 79.5516C60.7018 79.689 61.4401 79.4373 60.3104 79.7645C59.1806 80.0916 58.8946 80.2773 58.8946 80.2773C58.8946 80.2773 58.7911 80.2402 58.6683 80.3886C58.5457 80.5369 58.3817 80.7574 58.1573 80.712C57.9329 80.6664 57.817 80.7133 57.6466 80.7795C57.476 80.8457 57.324 80.7048 57.1485 80.8948C56.9729 81.0847 56.7372 81.1909 56.6365 81.1503C56.5355 81.1091 56.3489 80.9027 56.3489 80.9027L56.0192 81.5873L55.7885 81.9385L55.2753 82.3819L55.2315 82.6665C55.2315 82.6665 55.0457 82.951 55.1059 83.0921C55.1661 83.2333 55.2319 83.5021 55.2319 83.5021C55.2319 83.5021 54.9016 83.9705 54.7493 84.125C54.5971 84.2794 54.4124 84.5898 54.4124 84.5898C54.4124 84.5898 54.2928 84.8033 54.2167 84.8805C54.1407 84.9576 54.0331 85.159 53.952 85.3602C53.8709 85.5615 53.7872 85.7065 53.7467 85.8071C53.7062 85.9076 53.5738 86.1474 53.5529 86.4897C53.532 86.832 53.3685 87.272 53.3685 87.272L53.3387 87.4164C53.4724 87.9108 53.494 88.0039 53.5897 88.1684C53.6853 88.3327 53.7322 88.2586 53.7528 88.6538C53.7735 89.0486 53.8019 89.2081 53.7798 89.397C53.7576 89.5857 53.6544 89.9434 53.6263 90.103C53.5979 90.2624 53.832 90.4918 53.832 90.4918C53.832 90.4918 53.9954 90.8532 53.9548 90.9538C53.9143 91.0544 54.0384 91.2044 54.0384 91.2044C54.0384 91.2044 54.4353 91.343 54.5776 91.4364C54.7198 91.5296 54.9543 91.6678 55.0021 91.7499C55.05 91.8322 55.3818 92.1852 55.4295 92.2674C55.4773 92.3496 55.7745 92.6248 55.8518 92.701C55.929 92.7771 56.2847 93.0464 56.2847 93.0464C56.2847 93.0464 56.7321 93.2585 56.8451 93.358C56.9578 93.4573 57.2449 93.4604 57.3514 93.5304C57.4582 93.6003 57.6559 93.5198 57.792 93.5839C57.9282 93.6476 58.1323 93.4584 58.2625 93.4929C58.3924 93.5273 58.6909 93.3508 58.767 93.2736C58.843 93.1963 59.0051 92.9382 59.1707 92.9957C59.3362 93.0533 59.4099 92.9454 59.5339 92.9503C59.6576 92.9553 59.789 92.7734 59.9067 92.7489C60.0246 92.7244 60.307 92.5521 60.3953 92.5338C60.4837 92.5154 60.729 92.2677 60.8468 92.2432C60.9644 92.2188 61.0932 92.0731 61.2525 92.1013C61.4119 92.1294 61.3197 91.9751 61.603 92.0081C61.8863 92.0412 61.9561 91.9355 62.0628 92.0053C62.1696 92.0754 62.2706 91.9572 62.3834 92.0566C62.4961 92.1558 62.6573 92.2159 62.7113 92.3276C62.7651 92.4394 62.9659 92.5158 62.9659 92.5158L63.1496 92.501C63.1496 92.501 63.3447 92.2873 63.4279 92.393C63.5113 92.4984 63.7719 92.4039 63.7719 92.4039L64.1073 92.6388L64.2208 92.7451C64.2208 92.7451 64.4987 93.1859 64.5059 93.3686C64.5132 93.5513 64.5816 93.9256 64.5117 94.0322C64.4418 94.139 64.4593 94.5408 64.4593 94.5408C64.4593 94.5408 64.3659 94.6769 64.6798 94.8574C64.9939 95.038 65.2176 95.2163 65.3303 95.3156C65.4433 95.415 65.7505 95.6841 65.8225 95.884C65.8949 96.0839 65.9815 96.1864 66.1544 96.4269C66.3273 96.6674 66.4795 96.6761 66.5702 96.9645C66.661 97.2526 66.7199 97.2379 66.7333 97.4499C66.7468 97.6621 66.664 97.7002 66.7829 97.829C66.9018 97.9579 67.0726 98.2063 67.0618 98.3006C67.0507 98.395 67.073 98.7923 67.073 98.7923L67.0517 98.9685L66.8802 99.5428L66.7685 99.8283C66.7525 100.047 66.673 100.292 66.7636 100.58C66.8542 100.868 66.6831 100.891 66.9798 101.137C67.2766 101.382 67.4648 101.692 67.6672 101.926C67.8695 102.16 68.0105 102.397 68.0765 102.568C68.1428 102.738 68.2709 102.776 68.3787 102.999C68.4865 103.222 68.5272 103.333 68.5578 103.48C68.5884 103.627 68.6454 104.026 68.7229 104.102C68.8 104.178 68.8874 104.427 68.9413 104.538C68.9952 104.65 68.8786 104.702 69.0981 104.872C69.3177 105.041 69.4634 105.141 69.6117 105.264C69.7601 105.387 69.7202 105.336 69.8515 105.524C69.9826 105.712 70.1236 105.793 70.1898 105.963C70.256 106.133 70.3743 106.578 70.5056 106.766C70.6367 106.954 70.8068 107.129 70.8068 107.129C70.8068 107.129 71.1644 107.28 71.276 107.226C71.3875 107.173 71.5761 106.856 71.7711 106.907C71.9662 106.959 72.0902 106.831 72.2373 106.8C72.3845 106.77 72.498 106.569 72.6452 106.538C72.7924 106.508 72.9506 106.218 73.0808 106.252C73.2107 106.286 73.3318 106.145 73.4484 105.967C73.5651 105.789 73.6196 105.66 73.8354 105.369C74.0514 105.079 74.0264 105.088 74.1724 104.904C74.3185 104.72 74.4368 104.356 74.6306 104.254C74.8243 104.152 74.831 103.926 74.8593 103.767C74.8876 103.607 74.8976 103.518 74.9615 103.381C75.0255 103.245 74.9961 103.41 75.0638 102.996C75.1314 102.583 75.2881 102.39 75.4169 102.271C75.5457 102.152 75.5973 101.959 75.6794 101.911C75.7616 101.864 75.9263 101.958 75.8123 101.706C75.6985 101.453 75.6787 101.053 75.6016 100.977C75.5242 100.901 75.5049 101.211 75.4426 100.763C75.3804 100.316 75.5962 99.8016 75.5962 99.8016C75.5962 99.8016 75.9277 99.15 76.0566 99.0311C76.1856 98.9122 76.2012 98.8152 76.3829 98.6545C76.5643 98.494 76.9472 98.1141 76.9165 97.9669C76.8859 97.8196 76.9811 97.3949 76.9627 97.3065C76.9443 97.2182 76.9159 97.1342 76.753 96.6458C76.59 96.1578 76.7395 96.2527 76.4649 95.8185C76.1904 95.3842 76.0364 94.7982 75.8883 94.6755C75.7398 94.5527 75.7274 94.1601 75.703 94.0425C75.6785 93.9248 75.8223 93.5841 75.8861 93.4481C75.9499 93.3118 76.2317 92.7592 76.2317 92.7592C76.2317 92.7592 76.6715 91.9658 76.8103 91.5992C76.9491 91.2323 77.095 90.9058 77.2177 90.7575C77.3405 90.6092 77.6363 90.2627 77.7811 89.9255C77.926 89.5884 78.2338 88.9418 78.245 88.8471C78.2559 88.7529 78.4184 88.4087 78.4184 88.4087C78.4184 88.4087 78.6683 87.9594 78.6844 87.7411C78.7003 87.5227 78.7629 86.3141 78.7163 86.3852C78.67 86.4564 78.3161 86.5867 78.2043 86.6407C78.0929 86.6947 78.4141 86.7474 77.548 86.8663C76.6821 86.9848 76.2778 87.2209 76.2778 87.2209C76.0004 87.2171 75.8595 87.5675 75.6853 87.1737C75.5114 86.7802 75.3982 86.5477 75.1605 86.29C74.9225 86.0323 74.7791 85.9408 74.4348 85.613C74.0903 85.2855 74.15 85.4669 73.8532 85.2218C73.5566 84.9763 73.5208 85.0742 73.2941 84.7223C73.0673 84.3702 72.9753 84.5408 72.6884 84.0475C72.4014 83.5542 72.2822 83.516 72.1327 83.2401C71.983 82.9642 71.8342 82.9031 71.7201 82.6505C71.6061 82.3977 70.6486 81.1746 70.5418 81.1046C70.435 81.0348 70.1959 80.6069 70.2437 80.6892C70.2917 80.7713 70.7638 80.9773 70.7638 80.9773C70.7638 80.9773 70.9728 80.8314 71.0612 80.813C71.1495 80.7946 71.5737 81.0473 71.5982 81.1649C71.6227 81.2828 72.3628 81.7122 72.5955 82.0937C72.8284 82.4753 73.0647 82.73 73.1183 82.8417C73.172 82.9533 73.5695 83.3642 73.7241 83.5164C73.8784 83.6687 74.333 83.9493 74.4286 84.1137C74.5242 84.2782 75.1997 84.75 75.2793 85.1327C75.3589 85.5154 75.731 85.9613 75.785 86.0728C75.839 86.1844 76.4028 86.2156 76.4028 86.2156L77.0699 85.9019C77.0699 85.9019 77.9859 85.0035 78.1038 84.979C78.2214 84.9545 79.0695 84.313 79.0695 84.313C79.0695 84.313 79.3811 83.8865 79.6031 83.6254C79.8252 83.3641 80.0393 82.9081 80.0615 82.719C80.0835 82.5301 80.197 82.4886 80.3773 82.1745C80.5577 81.8605 80.8363 81.5175 80.5935 81.3837C80.3506 81.25 80.2453 81.3434 79.8898 81.1102C79.5341 80.8772 79.576 80.9273 79.2903 80.5873C79.0046 80.2476 79.136 79.7613 78.7862 80.2949C78.4366 80.8283 78.6492 80.8944 78.226 81.0749C77.8029 81.2548 77.6775 81.5944 77.4103 81.3428C77.143 81.0912 76.9739 81.3177 76.764 80.9006C76.5545 80.4835 76.4653 80.4686 76.3993 80.2982C76.3332 80.1276 76.3704 80.1204 76.043 79.7277C75.7157 79.3351 75.733 78.6132 75.9597 78.9653C76.1866 79.3174 76.4376 79.3381 76.8756 79.5235C77.3133 79.7088 77.5364 79.8763 77.8957 79.8323C78.2551 79.7881 78.551 79.6951 78.6221 79.7416C78.6932 79.7883 78.7259 79.6776 78.8854 79.7057C79.045 79.734 79.0747 79.5742 79.1826 79.7972C79.2905 80.0206 79.6173 79.9955 79.795 80.112C79.9729 80.2286 79.9722 80.1685 80.3673 80.1476C80.7624 80.1269 81.2848 80.006 81.2848 80.006L81.8466 79.8738L82.4891 79.7883C82.4891 79.7883 83.0254 79.963 83.143 79.9386C83.2607 79.9141 83.3615 80.2229 83.6927 80.3383C84.0239 80.4537 84.0814 80.4677 84.3008 80.6371C84.5207 80.8065 84.5127 80.9127 84.791 81.0697C85.0696 81.227 85.3984 80.9126 85.4389 80.8122C85.4791 80.7116 85.7554 80.5 85.7458 80.7477C85.7358 80.9954 86.0633 80.8284 86.0914 81.4063C86.1195 81.9838 86.0242 81.8474 86.2511 82.1996C86.4779 82.5517 87.3815 83.6055 87.4845 83.9526C87.5876 84.2997 87.7271 84.1415 87.8239 84.4594C87.9208 84.7769 88.1322 84.8622 88.1812 85.0978C88.2302 85.3334 88.4492 85.3499 88.5153 85.5207C88.5817 85.6912 88.8674 85.4699 88.9496 85.4223C89.0319 85.3743 89.3578 84.9045 89.3578 84.9045C89.3578 84.9045 89.5351 84.8117 89.4441 84.5233C89.3534 84.2353 89.39 84.2874 89.2981 83.8458C89.2063 83.4042 89.0369 83.4379 89.0334 82.9781C89.0299 82.5182 89.1986 82.2101 89.2147 81.9918C89.2307 81.7736 89.4012 81.3697 89.5126 81.3157C89.6242 81.2618 90.1967 80.7973 90.3011 80.5604C90.4054 80.3238 90.5983 80.034 90.7849 79.7496C90.9713 79.4652 91.3252 79.0983 91.432 79.1682C91.5386 79.2382 91.4928 79.2118 91.6401 79.1812C91.7872 79.1505 92.0799 79.2089 92.292 79.1955C92.5043 79.182 93.0219 79.6037 93.1653 79.8503C93.3087 80.0969 93.2371 80.0395 93.6406 80.355C94.044 80.6703 94.2897 80.3846 94.3877 80.8558C94.4856 81.3269 94.476 81.2854 94.6601 81.4315C94.844 81.5776 94.9217 81.0507 95.1106 81.073C95.2994 81.0952 95.3143 80.9738 95.5594 81.4142C95.8046 81.8547 95.8887 81.8342 96.0163 82.299C96.1437 82.7639 95.9947 82.3274 96.0744 82.71C96.154 83.0928 96.1291 83.138 96.2615 83.4789C96.3937 83.8203 96.6252 83.8847 96.6083 83.9496C96.6083 83.9496 96.6799 83.42 96.5474 83.0789C96.4154 82.7379 96.3594 82.2182 96.4761 82.0404C96.5926 81.8624 96.7068 81.6878 96.904 82.046C97.1014 82.4041 97.1054 82.0911 97.4621 82.4776C97.8191 82.8642 98.0403 82.7358 98.1126 82.9358C98.185 83.1358 98.335 83.1391 98.5774 83.2727C98.8203 83.4066 98.9533 83.1581 99.1521 82.9324C99.3511 82.7067 99.8624 81.93 99.837 81.6588C99.8112 81.3878 100.084 81.3794 99.4724 80.8006C98.8605 80.2214 98.8225 79.9874 98.2364 79.6793C97.6505 79.3712 97.3391 79.4146 97.6117 78.805C97.8842 78.1954 97.992 77.8015 98.258 77.8998C98.5242 77.9979 98.9356 77.8827 99.0581 78.4717C99.1806 79.0604 99.1918 79.7379 99.457 78.9456C99.689 78.2523 99.8039 77.8079 99.768 77.8055C99.7274 77.872 99.9721 77.5466 99.9721 77.5466C97.8264 70.095 92.9336 64.1392 86.6936 60.5064C86.6745 60.5144 86.6515 60.5336 86.6341 60.5393C86.3755 60.6238 85.7766 60.6847 85.5521 60.6393C85.3275 60.5939 85.228 60.4037 84.4807 60.6511C83.7337 60.8987 83.2921 60.9854 83.3902 60.7192C83.4885 60.4531 83.6112 60.1748 83.6933 60.127C83.7756 60.0792 83.9529 59.8898 83.7934 59.8616C83.6341 59.8332 83.4604 59.78 83.1011 59.8239C82.7416 59.868 82.803 60.0129 82.261 60.0642C81.7189 60.1156 82.5201 59.7884 81.4371 60.0444C80.354 60.3005 80.1019 60.4572 79.9842 60.4817C79.9105 60.4971 79.8097 60.4148 79.688 60.4581L79.6882 60.458ZM95.8905 85.4195L95.8193 85.4725C95.8193 85.4725 96.0631 85.6877 96.1758 85.7871C96.2886 85.8864 96.3015 86.07 96.5503 86.2334C96.7993 86.3966 96.8617 86.5762 96.9917 86.6107C97.1217 86.6452 97.4723 87.1269 97.5974 87.2854C97.7224 87.4435 97.9373 87.5815 98.0918 87.7339C98.2463 87.886 98.5677 88.2118 98.8472 88.5224C99.1269 88.8326 99.2931 88.9612 99.4476 89.1132C99.6021 89.2653 99.9911 89.3611 99.9911 89.3611C99.9911 89.3611 100.137 89.308 100.271 89.0651C100.404 88.8223 100.293 88.5895 100.274 88.5013C100.256 88.4129 99.9963 88.1924 99.9487 88.1102C99.9007 88.028 99.7674 87.8149 99.6315 87.7511C99.4954 87.687 99.3326 87.4963 99.0469 87.156C98.7612 86.8163 99.0538 87.1668 98.4836 86.6406C97.9133 86.1142 98.0222 86.4876 97.6556 86.3489C97.289 86.2101 97.1824 86.141 96.9987 85.9948C96.8144 85.8489 96.5244 85.3869 96.2951 85.4655C96.0657 85.544 95.8906 85.4195 95.8906 85.4195L95.8905 85.4195ZM46.4432 99.1414C46.947 100.097 47.512 101.006 48.1111 101.888C48.1577 101.695 48.1959 101.853 48.2684 101.709C48.3556 101.538 48.3173 101.401 48.4695 101.247C48.6215 101.092 48.7415 100.578 48.7389 100.271C48.7366 99.9644 48.6053 100.111 48.6214 99.8928C48.6375 99.6746 48.3022 99.8095 48.1417 99.6281C47.9809 99.4463 47.9608 99.6678 47.8126 99.545C47.6644 99.4221 47.451 99.5535 47.3137 99.3364C47.1899 99.1405 46.8502 99.2482 46.4432 99.1414ZM80.0726 96.173C80.0517 96.5153 79.8298 97.0562 79.8298 97.0562L79.2922 97.4719C79.2922 97.4719 79.1203 97.6981 79.0084 97.752C78.8968 97.8058 78.6323 98.0055 78.6323 98.0055C78.6323 98.0055 78.3647 97.9967 78.5079 98.2432C78.6513 98.4898 78.749 98.8212 78.7378 98.9155C78.7269 99.01 78.7563 99.1907 78.8053 99.4263C78.8543 99.6617 78.8336 99.9621 78.6986 100.052C78.5637 100.141 78.42 100.23 78.4923 100.431C78.5647 100.63 78.6923 101.247 78.6923 101.247L79.2036 101.759C79.2036 101.759 79.3016 101.652 79.5372 101.603C79.7725 101.554 79.9685 101.3 79.9685 101.3C79.9685 101.3 80.2367 101.299 80.1397 100.982C80.0429 100.664 80.1237 100.245 80.0756 100.163C80.028 100.081 80.241 99.6494 80.2227 99.5613C80.2043 99.4729 80.4026 98.9868 80.3719 98.8394C80.3413 98.6922 80.5103 98.4243 80.503 98.2417C80.4956 98.0587 80.4257 97.6326 80.4601 97.5026C80.4946 97.3727 80.5072 97.2562 80.4827 97.1385L80.4055 96.7838C80.4055 96.7838 80.0726 96.173 80.0726 96.173Z" fill="url(#RadialGradient_2)" fill-rule="nonzero" opacity="1" stroke="none"/>
<path d="M100.14 78.1311C104.246 93.6125 95.0298 109.493 79.5505 113.607C64.0712 117.721 48.1866 108.512 44.0649 93.0346C39.9405 77.5466 49.157 61.6485 64.6471 57.5316C80.1371 53.4147 96.0306 62.639 100.14 78.1311Z" fill="url(#RadialGradient_3)" fill-rule="nonzero" opacity="0.2" stroke="none"/>
</g>
<g opacity="1">
<path d="M72.7543 51.11C75.1502 52.5764 76.7365 53.9097 77.5131 55.1098C78.2897 56.3099 79.2068 58.5169 80.2645 61.7308C81.3221 64.9447 82.0714 67.9898 82.5124 70.8662C82.9534 73.7426 83.7072 75.3177 84.7738 75.5915C85.8404 75.8653 87.8947 74.7423 90.9367 72.2224C93.9787 69.7024 96.9053 66.8094 99.7166 63.5432C102.528 60.277 105.353 56.0883 108.191 50.977C111.03 45.8657 112.974 41.6601 114.025 38.36C115.075 35.06 115.83 31.908 116.289 28.9042C116.748 25.9004 116.948 23.9953 116.891 23.189C116.834 22.3828 116.446 21.7827 115.726 21.3889C115.007 20.9951 112.253 21.58 107.463 23.1435C102.674 24.707 98.8269 25.6237 95.9218 25.8936C93.0167 26.1634 90.4301 25.9101 88.1622 25.1337C87.0282 24.7455 85.8942 24.3573 84.7602 23.9691C85.4328 22.8648 86.1053 21.7604 86.7779 20.656C88.1229 18.4473 88.7635 17.1704 88.6995 16.8254C88.6355 16.4803 86.9785 15.2633 83.7284 13.1743C80.4782 11.0853 78.3679 10.1627 77.3972 10.4064C76.4266 10.6501 75.2333 11.9344 73.8174 14.2594C73.1095 15.4219 72.4016 16.5844 71.6936 17.7469C70.7172 17.2125 69.7408 16.678 68.7644 16.1436C66.8116 15.0747 65.4721 14.574 64.7458 14.6414C64.0195 14.7089 61.359 18.2901 56.7642 25.3851C52.1695 32.4801 49.9006 36.4307 49.9578 37.237C50.0149 38.0433 51.0359 39.0671 53.0207 40.3085" fill="url(#RadialGradient_4)" fill-rule="nonzero" opacity="1" stroke="#000000" stroke-linecap="butt" stroke-linejoin="miter" stroke-width="2"/>
<path d="M53.0207 40.3085C55.0055 41.5499 49.1217 52.8993 35.3694 74.3568C21.6171 95.8142 14.6599 107.351 14.4978 108.967C14.3358 110.584 14.5049 111.994 15.0051 113.198C15.5054 114.401 16.3368 115.399 17.4993 116.19C18.6619 116.982 19.7091 117.4 20.6409 117.445C21.5728 117.49 22.6108 117.361 23.755 117.057C24.8992 116.753 25.8733 116.279 26.6772 115.634C27.4811 114.989 34.7626 103.707 48.5217 81.7884C55.4013 70.829 62.2809 59.8697 69.1605 48.9103C70.3584 49.6436 71.5564 50.3768 72.7543 51.11" fill="#463838" fill-rule="nonzero" opacity="1" stroke="#000000" stroke-linecap="butt" stroke-linejoin="miter" stroke-width="2"/>
<path d="M111.557 26.547C111.344 28.1352 111.131 29.7233 110.917 31.3115C110.49 34.4878 109.382 38.221 107.591 42.511C105.801 46.8011 103.6 50.8661 100.987 54.7061C98.3745 58.5461 95.457 61.9866 92.2346 65.0278C90.6234 66.5484 89.0122 68.069 87.401 69.5896C87.1223 68.5845 86.8436 67.5795 86.5649 66.5744C86.0075 64.5643 87.2726 61.9243 90.3603 58.6544C93.4479 55.3844 95.912 52.2382 97.7527 49.2157C99.5933 46.1932 101.051 43.3488 102.127 40.6826C103.203 38.0163 104.002 35.3537 104.525 32.6949C105.047 30.0361 106.35 28.3468 108.433 27.6268C109.475 27.2669 110.516 26.9069 111.557 26.547Z" fill="url(#RadialGradient_5)" fill-rule="nonzero" opacity="1" stroke="#000000" stroke-linecap="butt" stroke-linejoin="miter" stroke-width="2"/>
<path d="M54.2756 41.5956L69.7574 48.5945" fill="url(#RadialGradient_6)" fill-rule="nonzero" opacity="1" stroke="#000000" stroke-linecap="butt" stroke-linejoin="miter" stroke-width="2"/>
</g>
</g>
</svg>
